<svg width="60" height="102" viewBox="0 0 60 102" fill="none" xmlns="http://www.w3.org/2000/svg">
<g id="Group 1252">
<g id="Subtract" filter="url(#filter0_bd_54_2)">
<path fill-rule="evenodd" clip-rule="evenodd" d="M20 21C20 17.134 23.134 14 27 14C30.866 14 34 17.134 34 21L34 57.6085C39.3284 60.2051 43 65.6738 43 72C43 80.8366 35.8365 88 27 88C18.1634 88 11 80.8366 11 72C11 65.6738 14.6715 60.2051 20 57.6085L20 41.5L25 41.5C25.8284 41.5 26.5 40.8284 26.5 40C26.5 39.1716 25.8284 38.5 25 38.5L20 38.5L20 35.5L25 35.5C25.8284 35.5 26.5 34.8284 26.5 34C26.5 33.1716 25.8284 32.5 25 32.5L20 32.5L20 29.5L25 29.5C25.8284 29.5 26.5 28.8284 26.5 28C26.5 27.1716 25.8284 26.5 25 26.5L20 26.5L20 21Z" fill="url(#paint0_linear_54_2)" fill-opacity="0.9" shape-rendering="crispEdges"/>
</g>
</g>
<defs>
<filter id="filter0_bd_54_2" x="-3.05176e-05" y="0" width="60" height="102" filterUnits="userSpaceOnUse" color-interpolation-filters="sRGB">
<feFlood flood-opacity="0" result="BackgroundImageFix"/>
<feGaussianBlur in="BackgroundImageFix" stdDeviation="3.5"/>
<feComposite in2="SourceAlpha" operator="in" result="effect1_backgroundBlur_54_2"/>
<feColorMatrix in="SourceAlpha" type="matrix" values="0 0 0 0 0 0 0 0 0 0 0 0 0 0 0 0 0 0 127 0" result="hardAlpha"/>
<feOffset dx="3"/>
<feGaussianBlur stdDeviation="7"/>
<feComposite in2="hardAlpha" operator="out"/>
<feColorMatrix type="matrix" values="0 0 0 0 0 0 0 0 0 0 0 0 0 0 0 0 0 0 0.15 0"/>
<feBlend mode="normal" in2="effect1_backgroundBlur_54_2" result="effect2_dropShadow_54_2"/>
<feBlend mode="normal" in="SourceGraphic" in2="effect2_dropShadow_54_2" result="shape"/>
</filter>
<linearGradient id="paint0_linear_54_2" x1="21.5" y1="88" x2="38.5" y2="17.5" gradientUnits="userSpaceOnUse">
<stop stop-color="#E20000"/>
<stop offset="1" stop-color="#FF2222" stop-opacity="0.7"/>
</linearGradient>
</defs>
</svg>
