<svg width="60" height="102" viewBox="0 0 60 102" fill="none" xmlns="http://www.w3.org/2000/svg">
<g id="Group 1252">
<g id="Subtract" filter="url(#filter0_bd_54_22)">
<path fill-rule="evenodd" clip-rule="evenodd" d="M20.0001 21C20.0001 17.134 23.1341 14 27.0001 14C30.8661 14 34.0001 17.134 34.0001 21L34.0001 57.6085C39.3285 60.2051 43.0001 65.6738 43.0001 72C43.0001 80.8366 35.8366 88 27.0001 88C18.1635 88 11.0001 80.8366 11.0001 72C11.0001 65.6738 14.6716 60.2051 20.0001 57.6085L20.0001 41.5L25.0001 41.5C25.8285 41.5 26.5001 40.8284 26.5001 40C26.5001 39.1716 25.8285 38.5 25.0001 38.5L20.0001 38.5L20.0001 35.5L25.0001 35.5C25.8285 35.5 26.5001 34.8284 26.5001 34C26.5001 33.1716 25.8285 32.5 25.0001 32.5L20.0001 32.5L20.0001 29.5L25.0001 29.5C25.8285 29.5 26.5001 28.8284 26.5001 28C26.5001 27.1716 25.8285 26.5 25.0001 26.5L20.0001 26.5L20.0001 21Z" fill="url(#paint0_linear_54_22)"/>
</g>
</g>
<defs>
<filter id="filter0_bd_54_22" x="6.10352e-05" y="0" width="60" height="102" filterUnits="userSpaceOnUse" color-interpolation-filters="sRGB">
<feFlood flood-opacity="0" result="BackgroundImageFix"/>
<feGaussianBlur in="BackgroundImageFix" stdDeviation="3.5"/>
<feComposite in2="SourceAlpha" operator="in" result="effect1_backgroundBlur_54_22"/>
<feColorMatrix in="SourceAlpha" type="matrix" values="0 0 0 0 0 0 0 0 0 0 0 0 0 0 0 0 0 0 127 0" result="hardAlpha"/>
<feOffset dx="3"/>
<feGaussianBlur stdDeviation="7"/>
<feComposite in2="hardAlpha" operator="out"/>
<feColorMatrix type="matrix" values="0 0 0 0 0 0 0 0 0 0 0 0 0 0 0 0 0 0 0.15 0"/>
<feBlend mode="normal" in2="effect1_backgroundBlur_54_22" result="effect2_dropShadow_54_22"/>
<feBlend mode="normal" in="SourceGraphic" in2="effect2_dropShadow_54_22" result="shape"/>
</filter>
<linearGradient id="paint0_linear_54_22" x1="23.0001" y1="88" x2="33.0001" y2="19" gradientUnits="userSpaceOnUse">
<stop stop-color="#0072DC"/>
<stop offset="1" stop-color="#0072DC"/>
</linearGradient>
</defs>
</svg>
